<?xml version="1.0" standalone="no"?>
<!DOCTYPE svg PUBLIC "-//W3C//DTD SVG 20010904//EN"
 "http://www.w3.org/TR/2001/REC-SVG-20010904/DTD/svg10.dtd">
<svg version="1.0" xmlns="http://www.w3.org/2000/svg"
 width="586.000000pt" height="586.000000pt" viewBox="0 0 586.000000 586.000000"
 preserveAspectRatio="xMidYMid meet">
<metadata>
Created by potrace 1.14, written by Peter Selinger 2001-2017
</metadata>
<g transform="translate(0.000000,586.000000) scale(0.100000,-0.100000)"
fill="#000000" stroke="none">
<path d="M3335 5823 c-150 -8 -464 -57 -665 -104 -293 -70 -556 -189 -675
-306 -29 -29 -66 -78 -81 -108 -26 -53 -27 -61 -21 -168 10 -212 59 -329 203
-483 79 -85 207 -162 362 -218 150 -54 239 -51 310 9 50 44 75 96 78 165 2 63
-12 101 -53 146 -35 39 -64 54 -182 93 -150 50 -226 112 -271 221 -15 37 -7
49 56 84 163 91 401 154 839 221 22 3 182 8 355 11 294 5 320 4 395 -15 175
-45 295 -128 402 -279 l48 -67 -1 -141 c-1 -157 -14 -250 -45 -321 -23 -55
-101 -174 -254 -388 -206 -289 -331 -509 -398 -700 -57 -164 -43 -150 -160
-164 -342 -41 -724 -134 -830 -201 -74 -46 -132 -118 -156 -193 -15 -46 -16
-251 -2 -304 27 -96 117 -166 215 -165 63 0 93 12 140 53 52 45 78 101 82 174
1 33 3 63 3 67 2 17 486 118 566 118 l34 0 -5 -362 c-2 -199 -7 -364 -10 -367
-8 -9 -638 -7 -775 1 -296 19 -690 116 -997 244 -205 86 -309 161 -331 241
-15 52 -25 166 -17 197 8 33 112 144 201 215 70 56 160 113 560 357 472 287
973 615 1210 794 278 209 405 388 405 570 0 112 -44 186 -139 235 -104 52
-217 33 -289 -50 -37 -42 -43 -59 -46 -151 -1 -38 -6 -76 -11 -84 -43 -68
-468 -370 -935 -665 -85 -54 -177 -112 -205 -130 -27 -17 -115 -71 -195 -120
-542 -328 -629 -388 -759 -514 -143 -141 -218 -262 -241 -391 -25 -137 9 -359
77 -499 46 -97 172 -225 289 -294 308 -182 862 -351 1284 -391 30 -3 84 -8
120 -12 36 -3 231 -7 433 -9 203 -2 370 -5 373 -7 2 -3 13 -57 24 -121 10 -63
37 -169 59 -234 21 -65 42 -134 46 -153 28 -129 195 -205 310 -140 116 65 144
176 90 350 -48 151 -84 294 -85 331 l0 36 173 42 c187 46 234 60 437 127 303
101 511 233 617 390 41 61 50 114 47 260 -5 214 -66 326 -249 456 -189 135
-469 239 -824 308 -51 10 -98 23 -104 29 -26 26 173 365 381 649 278 378 323
507 326 917 1 149 -2 179 -21 240 -22 70 -76 163 -130 226 -154 179 -221 237
-363 317 -67 37 -273 109 -338 118 -47 6 -591 11 -687 7z m870 -2948 c133 -28
361 -94 443 -129 43 -19 113 -54 153 -79 60 -36 76 -51 86 -82 19 -53 9 -75
-50 -116 -116 -79 -409 -183 -740 -263 l-28 -7 1 331 c1 182 4 338 7 346 7 18
36 18 128 -1z"/>
<path d="M3859 723 c-213 -72 -320 -175 -350 -341 -23 -123 25 -213 144 -270
154 -73 266 -94 507 -94 164 0 266 19 396 73 228 95 320 338 177 470 -30 28
-130 82 -197 106 -119 42 -319 74 -484 78 -106 2 -131 -1 -193 -22z m463 -304
c56 -12 114 -26 128 -31 25 -10 25 -11 -18 -30 -101 -45 -295 -61 -472 -37
-78 11 -152 37 -147 52 9 28 93 55 186 61 52 3 97 9 100 12 9 9 106 -3 223
-27z"/>
</g>
</svg>
